<svg xmlns="http://www.w3.org/2000/svg" version="1.1" xmlns:xlink="http://www.w3.org/1999/xlink" width="512" height="512" x="0" y="0" viewBox="0 0 24 24" style="enable-background:new 0 0 512 512" xml:space="preserve" class=""><g><path d="M12 1a11 11 0 1 0 11 11A11.013 11.013 0 0 0 12 1zm4.242 13.829a1 1 0 1 1-1.414 1.414L12 13.414l-2.828 2.829a1 1 0 0 1-1.414-1.414L10.586 12 7.758 9.171a1 1 0 1 1 1.414-1.414L12 10.586l2.828-2.829a1 1 0 1 1 1.414 1.414L13.414 12z" data-name="Layer 2" fill="#ffffff" opacity="1" data-original="#000000" class=""></path></g></svg>