<svg xmlns="http://www.w3.org/2000/svg" version="1.1" xmlns:xlink="http://www.w3.org/1999/xlink" width="512" height="512" x="0" y="0" viewBox="0 0 327 327" style="enable-background:new 0 0 512 512" xml:space="preserve" class="hovered-paths"><g transform="matrix(0.9999999999999998,0,0,0.9999999999999998,45.00000000000004,1.1368683772161603e-13)"><path d="M158 0h71a8 8 0 0 1 8 8v311a8 8 0 0 1-8 8h-71a8 8 0 0 1-8-8V8a8 8 0 0 1 8-8zM8 0h71a8 8 0 0 1 8 8v311a8 8 0 0 1-8 8H8a8 8 0 0 1-8-8V8a8 8 0 0 1 8-8zm0 0" fill="#ffffff" opacity="1" data-original="#000000" class="hovered-path"></path></g></svg>