<svg xmlns="http://www.w3.org/2000/svg" version="1.1" xmlns:xlink="http://www.w3.org/1999/xlink" width="512" height="512" x="0" y="0" viewBox="0 0 512 512" style="enable-background:new 0 0 512 512" xml:space="preserve" class=""><g><path fill-rule="evenodd" d="M443.684 267.985c0 107.334-87.012 194.346-194.345 194.346A194.339 194.339 0 0 1 73.133 350.024a24.3 24.3 0 0 0-22.509-14.305 24.3 24.3 0 0 0-22.443 14.405 25.043 25.043 0 0 0 .209 21.555A244.043 244.043 0 0 0 249.339 512c134.761 0 244.014-109.249 244.014-244.015S384.1 23.971 249.339 23.971A243.341 243.341 0 0 0 71.2 101.221L68.85 24.34a25.107 25.107 0 1 0-50.191 1.537l4.151 135.607a25.053 25.053 0 0 0 8.613 18.13 25.055 25.055 0 0 0 18.623 7.486l135.607-4.151a25.107 25.107 0 1 0-1.536-50.191L107.53 135.1a193.789 193.789 0 0 1 141.809-61.461c107.333 0 194.345 87.012 194.345 194.346z" fill="#ffffff" opacity="1" data-original="#000000"></path></g></svg>