<svg xmlns="http://www.w3.org/2000/svg" version="1.1" xmlns:xlink="http://www.w3.org/1999/xlink" width="512" height="512" x="0" y="0" viewBox="0 0 512 512.006" style="enable-background:new 0 0 512 512" xml:space="preserve"><g><path d="m507.523 148.89-138.668-144a16.014 16.014 0 0 0-17.492-3.734 16.024 16.024 0 0 0-10.027 14.848V85.34h-5.332c-114.688 0-208 93.312-208 208v32c0 7.422 5.226 13.61 12.457 15.297 1.176.297 2.348.425 3.52.425 6.039 0 11.82-3.542 14.613-9.109 29.996-60.012 90.304-97.281 157.398-97.281h25.344v69.332a15.97 15.97 0 0 0 10.027 14.828c5.996 2.453 12.969.961 17.492-3.734l138.668-144c5.973-6.207 5.973-15.977 0-22.207zm0 0" fill="#ffffff" opacity="1" data-original="#000000"></path><path d="M448.004 512.004h-384c-35.285 0-64-28.711-64-64V149.34c0-35.285 28.715-64 64-64h64c11.797 0 21.332 9.535 21.332 21.332s-9.535 21.332-21.332 21.332h-64c-11.777 0-21.336 9.559-21.336 21.336v298.664c0 11.777 9.559 21.336 21.336 21.336h384c11.773 0 21.332-9.559 21.332-21.336V277.34c0-11.797 9.535-21.336 21.332-21.336 11.8 0 21.336 9.539 21.336 21.336v170.664c0 35.289-28.715 64-64 64zm0 0" fill="#ffffff" opacity="1" data-original="#ffffff"></path></g></svg>